{
  "accessors": [
    {
      "bufferView": 2,
      "componentType": 5126,
      "count": 248,
      "max": [
        80.99999237060547,
        99.50480651855469,
        62.494468688964844
      ],
      "min": [
        38.99999237060547,
        -3.999999989900971e-06,
        28.16864776611328
      ],
      "type": "VEC3"
    },
    {
      "bufferView": 2,
      "byteOffset": 2976,
      "componentType": 5126,
      "count": 248,
      "max": [
        1.0,
        0.9902685880661011,
        0.9902682304382324
      ],
      "min": [
        -1.0,
        -0.990268349647522,
        -0.9902681112289429
      ],
      "type": "VEC3"
    },
    {
      "bufferView": 3,
      "componentType": 5126,
      "count": 248,
      "max": [
        0.0006507151992991567,
        0.9902681708335876,
        0.9902685880661011,
        1.0
      ],
      "min": [
        -1.0,
        -0.9902681708335876,
        -0.9902681112289429,
        1.0
      ],
      "type": "VEC4"
    },
    {
      "bufferView": 1,
      "componentType": 5126,
      "count": 248,
      "max": [
        0.9970700144767761,
        0.8923249840736389
      ],
      "min": [
        0.0029299999587237835,
        0.0029299999587237835
      ],
      "type": "VEC2"
    },
    {
      "bufferView": 0,
      "componentType": 5125,
      "count": 456,
      "type": "SCALAR"
    },
    {
      "bufferView": 2,
      "byteOffset": 5952,
      "componentType": 5126,
      "count": 248,
      "max": [
        21.000003814697266,
        99.50480651855469,
        62.494468688964844
      ],
      "min": [
        -20.99999237060547,
        -3.999999989900971e-06,
        28.16864776611328
      ],
      "type": "VEC3"
    },
    {
      "bufferView": 2,
      "byteOffset": 8928,
      "componentType": 5126,
      "count": 248,
      "max": [
        1.0,
        0.9902685880661011,
        0.9902681112289429
      ],
      "min": [
        -1.0,
        -0.990268349647522,
        -0.9902682304382324
      ],
      "type": "VEC3"
    },
    {
      "bufferView": 3,
      "byteOffset": 3968,
      "componentType": 5126,
      "count": 248,
      "max": [
        1.0,
        0.9902681708335876,
        0.9902681112289429,
        1.0
      ],
      "min": [
        -0.0006507172365672886,
        -0.9902681708335876,
        -0.9902685284614563,
        1.0
      ],
      "type": "VEC4"
    },
    {
      "bufferView": 1,
      "byteOffset": 1984,
      "componentType": 5126,
      "count": 248,
      "max": [
        0.9970700144767761,
        0.8923249840736389
      ],
      "min": [
        0.0029299999587237835,
        0.0029299999587237835
      ],
      "type": "VEC2"
    },
    {
      "bufferView": 0,
      "byteOffset": 1824,
      "componentType": 5125,
      "count": 456,
      "type": "SCALAR"
    },
    {
      "bufferView": 2,
      "byteOffset": 11904,
      "componentType": 5126,
      "count": 248,
      "max": [
        200.99998474121094,
        99.50480651855469,
        62.494468688964844
      ],
      "min": [
        159.0,
        -3.999999989900971e-06,
        28.16864776611328
      ],
      "type": "VEC3"
    },
    {
      "bufferView": 2,
      "byteOffset": 14880,
      "componentType": 5126,
      "count": 248,
      "max": [
        1.0,
        0.9902685880661011,
        0.9902682304382324
      ],
      "min": [
        -1.0,
        -0.990268349647522,
        -0.9902681112289429
      ],
      "type": "VEC3"
    },
    {
      "bufferView": 3,
      "byteOffset": 7936,
      "componentType": 5126,
      "count": 248,
      "max": [
        0.0006507151992991567,
        0.9902681708335876,
        0.9902685880661011,
        1.0
      ],
      "min": [
        -1.0,
        -0.9902681708335876,
        -0.9902681112289429,
        1.0
      ],
      "type": "VEC4"
    },
    {
      "bufferView": 1,
      "byteOffset": 3968,
      "componentType": 5126,
      "count": 248,
      "max": [
        0.9970700144767761,
        0.8923249840736389
      ],
      "min": [
        0.0029299999587237835,
        0.0029299999587237835
      ],
      "type": "VEC2"
    },
    {
      "bufferView": 0,
      "byteOffset": 3648,
      "componentType": 5125,
      "count": 456,
      "type": "SCALAR"
    },
    {
      "bufferView": 2,
      "byteOffset": 17856,
      "componentType": 5126,
      "count": 248,
      "max": [
        141.0,
        99.50480651855469,
        62.494468688964844
      ],
      "min": [
        98.99999237060547,
        -3.999999989900971e-06,
        28.16864776611328
      ],
      "type": "VEC3"
    },
    {
      "bufferView": 2,
      "byteOffset": 20832,
      "componentType": 5126,
      "count": 248,
      "max": [
        1.0,
        0.9902685880661011,
        0.9902681112289429
      ],
      "min": [
        -1.0,
        -0.990268349647522,
        -0.9902682304382324
      ],
      "type": "VEC3"
    },
    {
      "bufferView": 3,
      "byteOffset": 11904,
      "componentType": 5126,
      "count": 248,
      "max": [
        1.0,
        0.9902681708335876,
        0.9902681112289429,
        1.0
      ],
      "min": [
        -0.0006507172365672886,
        -0.9902681708335876,
        -0.9902685284614563,
        1.0
      ],
      "type": "VEC4"
    },
    {
      "bufferView": 1,
      "byteOffset": 5952,
      "componentType": 5126,
      "count": 248,
      "max": [
        0.9970700144767761,
        0.8923249840736389
      ],
      "min": [
        0.0029299999587237835,
        0.0029299999587237835
      ],
      "type": "VEC2"
    },
    {
      "bufferView": 0,
      "byteOffset": 5472,
      "componentType": 5125,
      "count": 456,
      "type": "SCALAR"
    }
  ],
  "asset": {
    "extras": {
      "author": "clon6767 (https://sketchfab.com/clon6767)",
      "license": "CC-BY-4.0 (http://creativecommons.org/licenses/by/4.0/)",
      "source": "https://sketchfab.com/3d-models/chalkboard-sign-v1-d989e2cf9a0744cb8bcb90c2560bb409",
      "title": "Chalkboard_sign_V1"
    },
    "generator": "Sketchfab-15.3.0",
    "version": "2.0"
  },
  "bufferViews": [
    {
      "buffer": 0,
      "byteLength": 7296,
      "name": "floatBufferViews",
      "target": 34963
    },
    {
      "buffer": 0,
      "byteLength": 7936,
      "byteOffset": 7296,
      "byteStride": 8,
      "name": "floatBufferViews",
      "target": 34962
    },
    {
      "buffer": 0,
      "byteLength": 23808,
      "byteOffset": 15232,
      "byteStride": 12,
      "name": "floatBufferViews",
      "target": 34962
    },
    {
      "buffer": 0,
      "byteLength": 15872,
      "byteOffset": 39040,
      "byteStride": 16,
      "name": "floatBufferViews",
      "target": 34962
    }
  ],
  "buffers": [
    {
      "byteLength": 54912,
      "uri": "scene.bin"
    }
  ],
  "images": [
    {
      "uri": "textures/lambert2SG_baseColor.jpeg"
    },
    {
      "uri": "textures/lambert2SG_metallicRoughness.png"
    },
    {
      "uri": "textures/lambert2SG_normal.png"
    },
    {
      "uri": "textures/initialShadingGroup_baseColor.jpeg"
    },
    {
      "uri": "textures/initialShadingGroup_metallicRoughness.png"
    },
    {
      "uri": "textures/initialShadingGroup_normal.png"
    }
  ],
  "materials": [
    {
      "doubleSided": true,
      "name": "lambert2SG",
      "normalTexture": {
        "index": 2
      },
      "occlusionTexture": {
        "index": 1
      },
      "pbrMetallicRoughness": {
        "baseColorTexture": {
          "index": 0
        },
        "metallicRoughnessTexture": {
          "index": 1
        }
      }
    },
    {
      "doubleSided": true,
      "name": "initialShadingGroup",
      "normalTexture": {
        "index": 5
      },
      "occlusionTexture": {
        "index": 4
      },
      "pbrMetallicRoughness": {
        "baseColorTexture": {
          "index": 3
        },
        "metallicRoughnessTexture": {
          "index": 4
        }
      }
    }
  ],
  "meshes": [
    {
      "name": "defaultMaterial",
      "primitives": [
        {
          "attributes": {
            "NORMAL": 1,
            "POSITION": 0,
            "TANGENT": 2,
            "TEXCOORD_0": 3
          },
          "indices": 4,
          "material": 1,
          "mode": 4
        }
      ]
    },
    {
      "name": "defaultMaterial",
      "primitives": [
        {
          "attributes": {
            "NORMAL": 6,
            "POSITION": 5,
            "TANGENT": 7,
            "TEXCOORD_0": 8
          },
          "indices": 9,
          "material": 1,
          "mode": 4
        }
      ]
    },
    {
      "name": "defaultMaterial",
      "primitives": [
        {
          "attributes": {
            "NORMAL": 11,
            "POSITION": 10,
            "TANGENT": 12,
            "TEXCOORD_0": 13
          },
          "indices": 14,
          "material": 0,
          "mode": 4
        }
      ]
    },
    {
      "name": "defaultMaterial",
      "primitives": [
        {
          "attributes": {
            "NORMAL": 16,
            "POSITION": 15,
            "TANGENT": 17,
            "TEXCOORD_0": 18
          },
          "indices": 19,
          "material": 0,
          "mode": 4
        }
      ]
    }
  ],
  "nodes": [
    {
      "children": [
        1
      ],
      "matrix": [
        1.0,
        0.0,
        0.0,
        0.0,
        0.0,
        2.220446049250313e-16,
        -1.0,
        0.0,
        0.0,
        1.0,
        2.220446049250313e-16,
        0.0,
        0.0,
        0.0,
        0.0,
        1.0
      ],
      "name": "Sketchfab_model"
    },
    {
      "children": [
        2,
        4,
        6,
        8
      ],
      "matrix": [
        1.0,
        0.0,
        0.0,
        0.0,
        0.0,
        -4.371139006309477e-08,
        0.999999999999999,
        0.0,
        0.0,
        -0.999999999999999,
        -4.371139006309477e-08,
        0.0,
        0.0,
        0.0,
        0.0,
        1.0
      ],
      "name": "Collada visual scene group"
    },
    {
      "children": [
        3
      ],
      "name": "Chalkboard_sign_V10"
    },
    {
      "mesh": 0,
      "name": "defaultMaterial"
    },
    {
      "children": [
        5
      ],
      "name": "Chalkboard_sign_V9"
    },
    {
      "mesh": 1,
      "name": "defaultMaterial"
    },
    {
      "children": [
        7
      ],
      "name": "Chalkboard_sign_V12"
    },
    {
      "mesh": 2,
      "name": "defaultMaterial"
    },
    {
      "children": [
        9
      ],
      "name": "Chalkboard_sign_V11"
    },
    {
      "mesh": 3,
      "name": "defaultMaterial"
    }
  ],
  "samplers": [
    {
      "magFilter": 9729,
      "minFilter": 9987,
      "wrapS": 10497,
      "wrapT": 10497
    }
  ],
  "scene": 0,
  "scenes": [
    {
      "name": "Sketchfab_Scene",
      "nodes": [
        0
      ]
    }
  ],
  "textures": [
    {
      "sampler": 0,
      "source": 0
    },
    {
      "sampler": 0,
      "source": 1
    },
    {
      "sampler": 0,
      "source": 2
    },
    {
      "sampler": 0,
      "source": 3
    },
    {
      "sampler": 0,
      "source": 4
    },
    {
      "sampler": 0,
      "source": 5
    }
  ]
}
