{
  "accessors": [
    {
      "bufferView": 1,
      "componentType": 5126,
      "count": 65532,
      "max": [
        -137.01480102539063,
        106.6432876586914,
        755.1356201171875
      ],
      "min": [
        -212.3322296142578,
        -67.39795684814453,
        676.3695678710938
      ],
      "type": "VEC3"
    },
    {
      "bufferView": 1,
      "byteOffset": 786384,
      "componentType": 5126,
      "count": 65532,
      "max": [
        0.9999968409538269,
        0.999990701675415,
        0.9999938607215881
      ],
      "min": [
        -0.9999855756759644,
        -0.9999969005584717,
        -0.9999936819076538
      ],
      "type": "VEC3"
    },
    {
      "bufferView": 0,
      "componentType": 5125,
      "count": 304965,
      "type": "SCALAR"
    },
    {
      "bufferView": 1,
      "byteOffset": 1572768,
      "componentType": 5126,
      "count": 65532,
      "max": [
        -129.6461944580078,
        110.1021728515625,
        741.51953125
      ],
      "min": [
        -199.72560119628906,
        -150.2152862548828,
        673.0260620117188
      ],
      "type": "VEC3"
    },
    {
      "bufferView": 1,
      "byteOffset": 2359152,
      "componentType": 5126,
      "count": 65532,
      "max": [
        0.9999957084655762,
        0.9999895095825195,
        0.9999995827674866
      ],
      "min": [
        -0.9999805092811584,
        -0.9999971389770508,
        -0.9999982714653015
      ],
      "type": "VEC3"
    },
    {
      "bufferView": 0,
      "byteOffset": 1219860,
      "componentType": 5125,
      "count": 311559,
      "type": "SCALAR"
    },
    {
      "bufferView": 1,
      "byteOffset": 3145536,
      "componentType": 5126,
      "count": 65532,
      "max": [
        -129.97817993164063,
        109.95773315429688,
        757.4111938476563
      ],
      "min": [
        -204.00730895996094,
        -105.71951293945313,
        674.7692260742188
      ],
      "type": "VEC3"
    },
    {
      "bufferView": 1,
      "byteOffset": 3931920,
      "componentType": 5126,
      "count": 65532,
      "max": [
        0.9999969005584717,
        0.9999985098838806,
        0.999994158744812
      ],
      "min": [
        -0.9999972581863403,
        -0.9999989867210388,
        -0.9999988675117493
      ],
      "type": "VEC3"
    },
    {
      "bufferView": 0,
      "byteOffset": 2466096,
      "componentType": 5125,
      "count": 303993,
      "type": "SCALAR"
    },
    {
      "bufferView": 1,
      "byteOffset": 4718304,
      "componentType": 5126,
      "count": 65532,
      "max": [
        -130.45689392089844,
        107.61746215820313,
        757.398681640625
      ],
      "min": [
        -201.65455627441406,
        -139.59022521972656,
        672.5940551757813
      ],
      "type": "VEC3"
    },
    {
      "bufferView": 1,
      "byteOffset": 5504688,
      "componentType": 5126,
      "count": 65532,
      "max": [
        0.9999870657920837,
        0.9999850988388062,
        0.9999987483024597
      ],
      "min": [
        -0.9999889135360718,
        -0.9999784231185913,
        -0.9999915361404419
      ],
      "type": "VEC3"
    },
    {
      "bufferView": 0,
      "byteOffset": 3682068,
      "componentType": 5125,
      "count": 307902,
      "type": "SCALAR"
    },
    {
      "bufferView": 1,
      "byteOffset": 6291072,
      "componentType": 5126,
      "count": 65532,
      "max": [
        -129.24508666992188,
        110.04833984375,
        752.5899658203125
      ],
      "min": [
        -206.1297149658203,
        -149.7090606689453,
        672.4842529296875
      ],
      "type": "VEC3"
    },
    {
      "bufferView": 1,
      "byteOffset": 7077456,
      "componentType": 5126,
      "count": 65532,
      "max": [
        0.99998939037323,
        0.9999963641166687,
        0.9999995827674866
      ],
      "min": [
        -0.9999915361404419,
        -0.9999912977218628,
        -0.9999937415122986
      ],
      "type": "VEC3"
    },
    {
      "bufferView": 0,
      "byteOffset": 4913676,
      "componentType": 5125,
      "count": 310053,
      "type": "SCALAR"
    },
    {
      "bufferView": 1,
      "byteOffset": 7863840,
      "componentType": 5126,
      "count": 65532,
      "max": [
        -132.34210205078125,
        109.72491455078125,
        756.8259887695313
      ],
      "min": [
        -211.93569946289063,
        -150.94273376464844,
        672.4821166992188
      ],
      "type": "VEC3"
    },
    {
      "bufferView": 1,
      "byteOffset": 8650224,
      "componentType": 5126,
      "count": 65532,
      "max": [
        0.9999886155128479,
        0.9999929070472717,
        0.9999987483024597
      ],
      "min": [
        -0.9999972581863403,
        -0.9999955296516418,
        -0.9999942183494568
      ],
      "type": "VEC3"
    },
    {
      "bufferView": 0,
      "byteOffset": 6153888,
      "componentType": 5125,
      "count": 294141,
      "type": "SCALAR"
    },
    {
      "bufferView": 1,
      "byteOffset": 9436608,
      "componentType": 5126,
      "count": 65532,
      "max": [
        -130.97442626953125,
        46.394989013671875,
        726.2698364257813
      ],
      "min": [
        -200.52394104003906,
        -149.50714111328125,
        673.2595825195313
      ],
      "type": "VEC3"
    },
    {
      "bufferView": 1,
      "byteOffset": 10222992,
      "componentType": 5126,
      "count": 65532,
      "max": [
        0.9999932646751404,
        0.9999487996101379,
        0.999983012676239
      ],
      "min": [
        -0.9999812245368958,
        -0.9999732375144958,
        -0.9999982714653015
      ],
      "type": "VEC3"
    },
    {
      "bufferView": 0,
      "byteOffset": 7330452,
      "componentType": 5125,
      "count": 289881,
      "type": "SCALAR"
    },
    {
      "bufferView": 1,
      "byteOffset": 11009376,
      "componentType": 5126,
      "count": 65532,
      "max": [
        -138.62709045410156,
        105.62960815429688,
        741.5638427734375
      ],
      "min": [
        -207.3097686767578,
        -150.94273376464844,
        672.60693359375
      ],
      "type": "VEC3"
    },
    {
      "bufferView": 1,
      "byteOffset": 11795760,
      "componentType": 5126,
      "count": 65532,
      "max": [
        0.9999923706054688,
        0.9990198612213135,
        0.9999931454658508
      ],
      "min": [
        -0.9999880790710449,
        -0.9999992847442627,
        -0.9999982118606567
      ],
      "type": "VEC3"
    },
    {
      "bufferView": 0,
      "byteOffset": 8489976,
      "componentType": 5125,
      "count": 284820,
      "type": "SCALAR"
    },
    {
      "bufferView": 1,
      "byteOffset": 12582144,
      "componentType": 5126,
      "count": 65532,
      "max": [
        -129.2815704345703,
        110.1021728515625,
        756.191650390625
      ],
      "min": [
        -210.4808349609375,
        -149.65977478027344,
        672.8911743164063
      ],
      "type": "VEC3"
    },
    {
      "bufferView": 1,
      "byteOffset": 13368528,
      "componentType": 5126,
      "count": 65532,
      "max": [
        0.9999980926513672,
        0.9999997615814209,
        0.9999616146087646
      ],
      "min": [
        -0.9999750852584839,
        -0.9999969005584717,
        -0.9999988675117493
      ],
      "type": "VEC3"
    },
    {
      "bufferView": 0,
      "byteOffset": 9629256,
      "componentType": 5125,
      "count": 300849,
      "type": "SCALAR"
    },
    {
      "bufferView": 1,
      "byteOffset": 14154912,
      "componentType": 5126,
      "count": 65532,
      "max": [
        -130.73770141601563,
        108.13196563720703,
        756.7455444335938
      ],
      "min": [
        -212.3306121826172,
        -143.28150939941406,
        672.5305786132813
      ],
      "type": "VEC3"
    },
    {
      "bufferView": 1,
      "byteOffset": 14941296,
      "componentType": 5126,
      "count": 65532,
      "max": [
        0.999988317489624,
        0.9999998211860657,
        0.9999977946281433
      ],
      "min": [
        -0.9999940991401672,
        -0.9999912977218628,
        -0.999511182308197
      ],
      "type": "VEC3"
    },
    {
      "bufferView": 0,
      "byteOffset": 10832652,
      "componentType": 5125,
      "count": 303414,
      "type": "SCALAR"
    },
    {
      "bufferView": 1,
      "byteOffset": 15727680,
      "componentType": 5126,
      "count": 44038,
      "max": [
        -129.52220153808594,
        109.98623657226563,
        757.4111938476563
      ],
      "min": [
        -212.04617309570313,
        -150.88955688476563,
        672.56787109375
      ],
      "type": "VEC3"
    },
    {
      "bufferView": 1,
      "byteOffset": 16256136,
      "componentType": 5126,
      "count": 44038,
      "max": [
        0.9999974966049194,
        0.9999998211860657,
        0.9999938607215881
      ],
      "min": [
        -0.9999850988388062,
        -0.9999842047691345,
        -0.9999943971633911
      ],
      "type": "VEC3"
    },
    {
      "bufferView": 0,
      "byteOffset": 12046308,
      "componentType": 5125,
      "count": 95040,
      "type": "SCALAR"
    }
  ],
  "asset": {
    "extras": {
      "author": "Metron3D (https://sketchfab.com/metron3d)",
      "license": "CC-BY-4.0 (http://creativecommons.org/licenses/by/4.0/)",
      "source": "https://sketchfab.com/3d-models/statue-of-liberty-3d-scan-8e808365b5a6453497826b114b02f155",
      "title": "Statue of Liberty 3D Scan"
    },
    "generator": "Sketchfab-12.66.0",
    "version": "2.0"
  },
  "bufferViews": [
    {
      "buffer": 0,
      "byteLength": 12426468,
      "name": "floatBufferViews",
      "target": 34963
    },
    {
      "buffer": 0,
      "byteLength": 16784592,
      "byteOffset": 12426468,
      "byteStride": 12,
      "name": "floatBufferViews",
      "target": 34962
    }
  ],
  "buffers": [
    {
      "byteLength": 29211060,
      "uri": "scene.bin"
    }
  ],
  "materials": [
    {
      "doubleSided": true,
      "name": "Scene_-_Root",
      "pbrMetallicRoughness": {
        "metallicFactor": 0.0,
        "roughnessFactor": 0.6
      }
    }
  ],
  "meshes": [
    {
      "name": "Object_0",
      "primitives": [
        {
          "attributes": {
            "NORMAL": 1,
            "POSITION": 0
          },
          "indices": 2,
          "material": 0,
          "mode": 4
        }
      ]
    },
    {
      "name": "Object_1",
      "primitives": [
        {
          "attributes": {
            "NORMAL": 4,
            "POSITION": 3
          },
          "indices": 5,
          "material": 0,
          "mode": 4
        }
      ]
    },
    {
      "name": "Object_2",
      "primitives": [
        {
          "attributes": {
            "NORMAL": 7,
            "POSITION": 6
          },
          "indices": 8,
          "material": 0,
          "mode": 4
        }
      ]
    },
    {
      "name": "Object_3",
      "primitives": [
        {
          "attributes": {
            "NORMAL": 10,
            "POSITION": 9
          },
          "indices": 11,
          "material": 0,
          "mode": 4
        }
      ]
    },
    {
      "name": "Object_4",
      "primitives": [
        {
          "attributes": {
            "NORMAL": 13,
            "POSITION": 12
          },
          "indices": 14,
          "material": 0,
          "mode": 4
        }
      ]
    },
    {
      "name": "Object_5",
      "primitives": [
        {
          "attributes": {
            "NORMAL": 16,
            "POSITION": 15
          },
          "indices": 17,
          "material": 0,
          "mode": 4
        }
      ]
    },
    {
      "name": "Object_6",
      "primitives": [
        {
          "attributes": {
            "NORMAL": 19,
            "POSITION": 18
          },
          "indices": 20,
          "material": 0,
          "mode": 4
        }
      ]
    },
    {
      "name": "Object_7",
      "primitives": [
        {
          "attributes": {
            "NORMAL": 22,
            "POSITION": 21
          },
          "indices": 23,
          "material": 0,
          "mode": 4
        }
      ]
    },
    {
      "name": "Object_8",
      "primitives": [
        {
          "attributes": {
            "NORMAL": 25,
            "POSITION": 24
          },
          "indices": 26,
          "material": 0,
          "mode": 4
        }
      ]
    },
    {
      "name": "Object_9",
      "primitives": [
        {
          "attributes": {
            "NORMAL": 28,
            "POSITION": 27
          },
          "indices": 29,
          "material": 0,
          "mode": 4
        }
      ]
    },
    {
      "name": "Object_10",
      "primitives": [
        {
          "attributes": {
            "NORMAL": 31,
            "POSITION": 30
          },
          "indices": 32,
          "material": 0,
          "mode": 4
        }
      ]
    }
  ],
  "nodes": [
    {
      "children": [
        1
      ],
      "matrix": [
        1.0,
        0.0,
        0.0,
        0.0,
        0.0,
        2.220446049250313e-16,
        -1.0,
        0.0,
        0.0,
        1.0,
        2.220446049250313e-16,
        0.0,
        0.0,
        0.0,
        0.0,
        1.0
      ],
      "name": "Sketchfab_model"
    },
    {
      "children": [
        2,
        3,
        4,
        5,
        6,
        7,
        8,
        9,
        10,
        11,
        12
      ],
      "name": "statue-of-liberty-decimated.stl.cleaner.materialmerger.gles"
    },
    {
      "mesh": 0,
      "name": "Object_2"
    },
    {
      "mesh": 1,
      "name": "Object_3"
    },
    {
      "mesh": 2,
      "name": "Object_4"
    },
    {
      "mesh": 3,
      "name": "Object_5"
    },
    {
      "mesh": 4,
      "name": "Object_6"
    },
    {
      "mesh": 5,
      "name": "Object_7"
    },
    {
      "mesh": 6,
      "name": "Object_8"
    },
    {
      "mesh": 7,
      "name": "Object_9"
    },
    {
      "mesh": 8,
      "name": "Object_10"
    },
    {
      "mesh": 9,
      "name": "Object_11"
    },
    {
      "mesh": 10,
      "name": "Object_12"
    }
  ],
  "scene": 0,
  "scenes": [
    {
      "name": "Sketchfab_Scene",
      "nodes": [
        0
      ]
    }
  ]
}
